<svg width="300" height="300" viewBox="0 0 300 300" fill="none" xmlns="http://www.w3.org/2000/svg">
<rect width="300" height="300" rx="70" fill="#034EEE"/>
<path d="M141.811 194.533C144.894 191.318 147.642 187.777 150 183.967C150.803 185.265 151.652 186.532 152.543 187.765C154.269 190.152 156.156 192.413 158.189 194.533C159.088 195.471 160.016 196.382 160.971 197.263C165.716 201.642 171.128 205.302 177.038 208.072L191.753 193.297L202.77 182.235L203.571 181.431L204.38 182.244L215.469 193.378L230.221 208.19C236.149 205.444 241.582 201.804 246.348 197.442C249.472 194.582 252.31 191.412 254.813 187.981C262.476 177.476 267 164.519 267 150.5C267 126.286 253.502 105.237 233.648 94.5263L219.348 108.885C236.105 115.217 248.027 131.461 248.027 150.5C248.027 159.246 245.511 167.402 241.167 174.279C238.886 177.889 236.101 181.146 232.912 183.951L223.94 174.943L203.571 154.491L183.371 174.772L174.404 183.775C171.893 181.541 169.636 179.024 167.684 176.274C167.169 175.548 166.675 174.806 166.203 174.049C161.947 167.221 159.486 159.149 159.486 150.5C159.486 140.892 162.523 131.996 167.684 124.726C172.696 117.668 179.711 112.143 187.896 108.988L173.623 94.6575C167.884 97.7862 162.681 101.781 158.189 106.467C155.106 109.682 152.358 113.223 150 117.033C143.986 126.75 140.514 138.218 140.514 150.5C140.514 160.108 137.477 169.004 132.316 176.274C124.29 187.578 111.124 194.95 96.2432 194.95C71.7934 194.95 51.973 175.049 51.973 150.5C51.973 125.951 71.7934 106.05 96.2432 106.05C111.124 106.05 124.29 113.422 132.316 124.726C134.66 118.178 137.871 112.045 141.811 106.467C130.306 94.4665 114.143 87 96.2432 87C61.315 87 33 115.43 33 150.5C33 185.57 61.315 214 96.2432 214C114.143 214 130.306 206.533 141.811 194.533Z" fill="white"/>
</svg>
